<svg id="Layer_1" data-name="Layer 1" xmlns="http://www.w3.org/2000/svg" viewBox="0 0 572.49 238.83"><defs><style>.cls-1{fill:#f28c2e;}</style></defs><title>logo_color</title><path d="M662.8,232.65H545.37a26.46,26.46,0,0,0-.13,7.84,41,41,0,0,0,1.18,5.81c1.75,5.51,5.74,8.72,11.22,10a101.06,101.06,0,0,0,10.46,1.79c8.94,1.14,17.94.74,26.91,0.61a79.35,79.35,0,0,0,16.54-1.7c4.4-1,7.75-3.22,8.85-7.9a18.42,18.42,0,0,0,.37-3.23,0.82,0.82,0,0,1,1-1q20.13,0,40.27,0a1.1,1.1,0,0,1,.84.64c0.2,4.58-.32,9-3.22,12.8a26.89,26.89,0,0,1-9.68,7.62,65.72,65.72,0,0,1-16.52,5.42c-4.42.89-8.89,1.6-13.37,2.19-3.6.47-7.23,0.62-10.85,0.93-11.74,1-23.5.61-35.26,0.63-3.94,0-7.88-.23-11.81-0.44q-4.3-.22-8.59-0.64c-9.9-1-19.77-2.11-29.22-5.47a28.26,28.26,0,0,1-12.44-8.27,34.22,34.22,0,0,1-6.56-12.62,51.37,51.37,0,0,1-2.2-12.24c-0.18-3.89-.52-7.8-0.39-11.69,0.22-6.84,1.34-13.55,4.38-19.79,3.87-7.92,10.26-12.92,18.51-15.69A84.72,84.72,0,0,1,542,184.62c4.49-.57,9-1.11,13.49-1.52,3.58-.33,7.18-0.58,10.78-0.66Q580.1,182.12,594,182c3.86,0,7.73.2,11.59,0.43,3.66,0.21,7.32.47,11,.87,8,0.88,16,2,23.66,4.59a29.31,29.31,0,0,1,20.52,21.26,51.74,51.74,0,0,1,2,14c0,2.92.12,5.84,0.18,8.76A5.9,5.9,0,0,1,662.8,232.65Zm-41.43-13.45a82.6,82.6,0,0,0-.92-9.1c-0.95-4.52-3.6-7.86-8.26-9a68.44,68.44,0,0,0-9.45-1.72c-4.44-.47-8.92-0.8-13.39-0.87-7.51-.13-15-0.26-22.52.64a100.28,100.28,0,0,0-9.94,1.59c-3.72.83-6.88,2.66-8.72,6.24a22.19,22.19,0,0,0-2.23,8c-0.14,1.39-.19,2.8-0.29,4.27h75.72Z" transform="translate(-113.17 -36.54)"/><path d="M197.12,275.25c-4.1,0-8.19.06-12.29,0s-8.46-.23-12.69-0.45c-3.81-.2-7.62-0.48-11.41-0.86-8.59-.87-17.16-1.93-25.43-4.6a28.77,28.77,0,0,1-11.2-6.21,30.45,30.45,0,0,1-7.8-12.53,48.2,48.2,0,0,1-2.69-13.34c-0.24-4.58-.56-9.19-0.4-13.76a53.8,53.8,0,0,1,4.3-20.45,26.59,26.59,0,0,1,16.82-14.89,83.76,83.76,0,0,1,14.54-3.29c4-.55,8-1.08,12.07-1.51,2.46-.26,4.93-0.36,7.41-0.46,7.14-.28,14.29-0.6,21.43-0.77,4.24-.1,8.48,0,12.72.07l3.29,0c3.65,0.07,7.31.09,11,.24s7.13,0.34,10.68.66a164.57,164.57,0,0,1,20.74,2.85c5.19,1.15,10.31,2.51,14.91,5.34A26.88,26.88,0,0,1,274,204.87a39.64,39.64,0,0,1,2.85,12.42c0.27,4.87.58,9.77,0.39,14.64a59.31,59.31,0,0,1-3.66,19.31c-2.33,6-5.79,11.13-11.35,14.61a40.6,40.6,0,0,1-12.67,5c-4.46,1-9,1.78-13.52,2.45-3.66.54-7.35,0.84-11,1.11q-6.15.46-12.32,0.66c-5.18.18-10.37,0.24-15.56,0.35v-0.12Zm-3.72-14,0,0.53c4.85-.39,9.71-0.74,14.55-1.2a45.68,45.68,0,0,0,13.19-3.32,25.35,25.35,0,0,0,10.77-7.91c4-5.24,5.45-11.35,5.84-17.75a47.33,47.33,0,0,0-.22-7.64,48.47,48.47,0,0,0-1.32-7.43,23.34,23.34,0,0,0-6.1-10.62,27.09,27.09,0,0,0-10-6.11,55.53,55.53,0,0,0-15.43-3.27c-3.88-.29-7.78-0.64-11.67-0.6-4.28,0-8.57.46-12.85,0.81a49.11,49.11,0,0,0-13.57,3.09c-5.62,2.16-10.24,5.56-13.2,11a34.34,34.34,0,0,0-3.84,15,45.69,45.69,0,0,0,1.28,14.15c1.94,7.37,6,13,13,16.43,6.52,3.21,13.53,4.33,20.66,4.86C187.48,261.38,190.45,261.21,193.4,261.21Z" transform="translate(-113.17 -36.54)"/><path d="M353.29,183.15l-1.65,15.52a4.27,4.27,0,0,0,1.16-.64c3.87-4.93,9-8,14.74-10.26a66.27,66.27,0,0,1,15.8-4c3.23-.42,6.47-0.81,9.71-1.08,2.86-.24,5.74-0.33,8.61-0.45,2.37-.1,4.74-0.23,7.11-0.19,3.94,0.07,7.89.13,11.81,0.43,8.88,0.67,17.7,1.74,26.2,4.57a39.9,39.9,0,0,1,13.38,7.05,21.75,21.75,0,0,1,8.05,14.22,32.36,32.36,0,0,1,.24,4q0,30.5,0,61v1H426.77V272.9c0-18.73,0-37.45,0-56.18a32.07,32.07,0,0,0-1-7.41c-0.68-2.77-2.85-4.49-5.28-5.78A33.6,33.6,0,0,0,410,200.41a104.32,104.32,0,0,0-20.62-.82c-7.85.28-15.67,1.13-23.07,4.12-4.36,1.77-8.21,4.2-10.61,8.44a14.36,14.36,0,0,0-2,7.13q0,26.83,0,53.65c0,0.43,0,.86,0,1.36H312.05V183.15h41.24Z" transform="translate(-113.17 -36.54)"/><path class="cls-1" d="M553,122.91c1.3,0.23,2.6.42,3.89,0.69a14,14,0,0,1,11.29,12,63.07,63.07,0,0,1,.58,7.7c0.08,6.33,0,12.66,0,19.08H550.65c0-1.3,0-2.59,0-3.89,0-5.24,0-10.49-.17-15.72-0.16-3.94-1.52-7.46-4.92-9.85a12.84,12.84,0,0,0-7.36-2.34c-9-.08-17.91,0-26.86-0.09-1,0-1,.49-1,1.21q0,14.58,0,29.16c0,0.47,0,.94,0,1.51H492.26v-95h2q22.5,0,45,0a58,58,0,0,1,15,1.62c3.87,1,7.5,2.54,10.18,5.7a22,22,0,0,1,4.46,10.14,60.26,60.26,0,0,1,.68,17,86.77,86.77,0,0,1-1.3,8.8c-0.93,5-4.16,8.09-8.75,9.86-1.82.7-3.72,1.18-5.59,1.75l-0.9.27v0.33ZM510.33,82.7c0,0.56,0,1.06,0,1.56q0,15,0,29.91a0.92,0.92,0,0,0,1.15,1.1c7.9,0,15.79,0,23.69,0a52.7,52.7,0,0,0,7.59-.61c3.36-.52,6.17-2.05,7.28-5.55a27.28,27.28,0,0,0,1.15-5.4,46.66,46.66,0,0,0-.39-13.14c-0.76-4.17-2.23-6.25-6.24-7.1a23.34,23.34,0,0,0-4.51-.63c-9.53-.1-19.06-0.12-28.6-0.16C511.09,82.63,510.77,82.67,510.33,82.7Z" transform="translate(-113.17 -36.54)"/><path class="cls-1" d="M395.25,117.28c0.22-5.61.3-10.87,0.68-16.11a78.58,78.58,0,0,1,3.36-19c2-6.07,6.17-9.66,12.08-11.56a67.63,67.63,0,0,1,18.86-3c4.36-.13,8.73-0.3,13.09-0.19a71.48,71.48,0,0,1,18.79,2.72c7.29,2.19,11.74,6.91,13.7,14.2a85.22,85.22,0,0,1,2.38,13.46,191.59,191.59,0,0,1,.55,24.13,99.59,99.59,0,0,1-2.17,20.21,54.14,54.14,0,0,1-2.95,8.78c-1.69,4-5,6.27-9,7.79A55,55,0,0,1,447,162.11c-5.39.23-10.8,0.47-16.19,0.36A72.65,72.65,0,0,1,412.94,160c-7.74-2.13-12.66-6.91-14.7-14.71a72.73,72.73,0,0,1-2.35-14.21C395.61,126.37,395.45,121.66,395.25,117.28Zm18.14-.41c0.13,4.49.08,8.37,0.4,12.21,0.28,3.44.87,6.86,1.49,10.25a6.7,6.7,0,0,0,3.94,5.38,15,15,0,0,0,3.74,1.23c4,0.52,8,1,12,1.22a56,56,0,0,0,17.13-1.42c2.92-.79,5.52-2.07,6.42-5.32a35.38,35.38,0,0,0,.94-3.83,120.17,120.17,0,0,0,1.29-18.71c0-4.54-.08-9.09-0.21-13.63a78.64,78.64,0,0,0-1.44-13.72,7.5,7.5,0,0,0-5.67-6.23,49.46,49.46,0,0,0-12.7-1.65c-3.57-.1-7.16,0-10.73.21a32.49,32.49,0,0,0-10.05,1.87c-2.14.83-3.88,2.09-4.29,4.49C415,93,414.28,96.69,414,100.45,413.6,106.12,413.56,111.81,413.39,116.88Z" transform="translate(-113.17 -36.54)"/><path class="cls-1" d="M685.66,47.59a11.22,11.22,0,1,1-11.18-10.92A11,11,0,0,1,685.66,47.59Zm-19.64,0a8.46,8.46,0,0,0,8.52,8.72,8.36,8.36,0,0,0,8.32-8.65c0-4.86-3.53-8.79-8.39-8.79A8.48,8.48,0,0,0,666,47.59Zm6.72,5.73h-2.53V42.4a22.11,22.11,0,0,1,4.19-.33,6.8,6.8,0,0,1,3.79.8,3,3,0,0,1,1.07,2.4A2.8,2.8,0,0,1,677,47.79v0.13a3.22,3.22,0,0,1,2,2.66,8.34,8.34,0,0,0,.8,2.73h-2.73a9.35,9.35,0,0,1-.87-2.66c-0.2-1.2-.87-1.73-2.26-1.73h-1.2v4.39Zm0.07-6.19H674c1.4,0,2.53-.47,2.53-1.6s-0.73-1.66-2.33-1.66a6.06,6.06,0,0,0-1.4.13v3.13Z" transform="translate(-113.17 -36.54)"/><path class="cls-1" d="M223,67.16h64.31V82.33H240.79v24.24h43.7v15h-43.7v25.95h46.48v15H223V67.16Z" transform="translate(-113.17 -36.54)"/><polygon class="cls-1" points="188.72 125.96 188.72 30.9 203.39 30.9 228.41 65.58 252.11 30.81 268.29 30.81 268.29 125.96 252.11 125.96 252.11 60.83 228.36 92.8 204.53 60.62 204.53 125.96 188.72 125.96"/><polygon class="cls-1" points="496.31 125.91 496.31 90.76 462.09 30.75 481.71 30.75 505.58 71.39 529.41 30.64 549.71 30.64 515.07 89.97 515.07 125.96 496.31 125.91"/><path d="M160.67,86.46A74.39,74.39,0,0,0,179,76.17V162.5h29.17v-126H199C191.66,45,176.8,55.84,161.2,62.46a1.7,1.7,0,0,1-.53.14V86.46Z" transform="translate(-113.17 -36.54)"/><path class="cls-1" d="M160.91,86.46a74.39,74.39,0,0,1-18.33-10.29V162.5H113.42v-126h9.13c7.37,8.48,22.23,19.31,37.84,25.93a1.7,1.7,0,0,0,.53.14V86.46Z" transform="translate(-113.17 -36.54)"/></svg>