<svg width="64" height="64" viewBox="0 0 64 64" fill="none" xmlns="http://www.w3.org/2000/svg">
<circle cx="32" cy="32" r="32" fill="#F4511D"/>
<path d="M41.25 26.6895V23.75H23.75V26.6895H41.25ZM41.25 31.0645V28.125H23.75V31.0645H41.25ZM41.25 35.4395V32.5H23.75V35.4395H41.25ZM44.1895 17.9395C44.9642 17.9395 45.625 18.2357 46.1719 18.8281C46.7643 19.375 47.0605 20.0358 47.0605 20.8105V38.3105C47.0605 39.0853 46.7643 39.7689 46.1719 40.3613C45.625 40.9538 44.9642 41.25 44.1895 41.25H23.75L17.9395 47.0605V20.8105C17.9395 20.0358 18.2129 19.375 18.7598 18.8281C19.3522 18.2357 20.0358 17.9395 20.8105 17.9395H44.1895Z" fill="white"/>
</svg>
