<svg width="64" height="64" viewBox="0 0 64 64" fill="none" xmlns="http://www.w3.org/2000/svg">
<circle cx="32" cy="32" r="32" fill="#F4511D"/>
<path d="M25.6387 30.7227C27.8262 34.9609 31.0391 38.1738 35.2773 40.3613L38.4902 37.1484C38.946 36.6927 39.4473 36.5788 39.9941 36.8066C41.6348 37.3535 43.3665 37.627 45.1895 37.627C45.5996 37.627 45.9414 37.7637 46.2148 38.0371C46.4883 38.3105 46.625 38.6523 46.625 39.0625V44.1895C46.625 44.5996 46.4883 44.9414 46.2148 45.2148C45.9414 45.4883 45.5996 45.625 45.1895 45.625C38.3535 45.625 32.4974 43.2096 27.6211 38.3789C22.7904 33.5026 20.375 27.6465 20.375 20.8105C20.375 20.4004 20.5117 20.0586 20.7852 19.7852C21.0586 19.5117 21.4004 19.375 21.8105 19.375H26.9375C27.3477 19.375 27.6895 19.5117 27.9629 19.7852C28.2363 20.0586 28.373 20.4004 28.373 20.8105C28.373 22.6335 28.6465 24.3652 29.1934 26.0059C29.3757 26.5983 29.2617 27.0996 28.8516 27.5098L25.6387 30.7227Z" fill="white"/>
</svg>